<svg width="145" height="146" viewBox="0 0 145 146" fill="none" xmlns="http://www.w3.org/2000/svg">
    <path fill-rule="evenodd" clip-rule="evenodd" d="M104.041 26.7464C93.2377 28.5127 87.0737 32.1904 82.3559 36.7855C81.831 35.8866 80.8605 35.2833 79.75 35.2833H62.5312C61.4207 35.2833 60.4502 35.8866 59.9253 36.7855C55.329 32.3087 49.36 28.7027 39.0652 26.8867C38.5619 24.3358 38.3608 21.53 38.5585 18.455C38.1064 18.1847 36.7953 17.9684 35.1678 19.2662C33.4087 20.6689 32.6636 24.4973 32.4941 26.0323C32.1418 26.0008 31.7854 25.9711 31.4247 25.943C16.6779 24.7957 19.0964 34.9604 21.2578 44.0445C21.727 46.0163 22.184 47.9372 22.4508 49.6804C22.7538 51.6603 22.4024 54.0908 22.0304 56.6636C21.6242 59.4736 21.1934 62.4534 21.5637 65.2015C17.9837 70.9612 15.6015 77.7042 14.6235 85.3595C13.0526 97.6547 11.9622 110.845 21.6922 118.732C31.9859 127.076 55.9035 129.271 71.9589 129.271C88.0143 129.271 112.717 127.076 123.011 118.732C132.741 110.845 131.65 96.7765 130.08 85.3595C128.912 76.8757 125.709 69.3024 120.859 62.9331C120.857 60.8569 120.547 58.7151 120.251 56.6637L120.251 56.6636C119.879 54.0908 119.527 51.6603 119.83 49.6804C120.097 47.9372 120.554 46.0163 121.023 44.0444C123.185 34.9604 125.603 24.7957 110.857 25.943L110.578 25.9651C110.394 24.3885 109.646 20.6489 107.912 19.2662C106.284 17.9684 104.973 18.1847 104.521 18.455C104.715 21.4738 104.525 24.2331 104.041 26.7464Z" fill="#FFEBEC"/>
    <path fill-rule="evenodd" clip-rule="evenodd" d="M120.251 56.6638C120.547 58.7151 120.857 60.857 120.859 62.9331C125.709 69.3025 128.912 76.8757 130.08 85.3595C131.651 96.7765 132.741 110.845 123.011 118.732C112.717 127.076 88.0143 129.271 71.9589 129.271C55.9035 129.271 31.9859 127.076 21.6922 118.732C11.9622 110.845 13.0526 97.6547 14.6235 85.3595C15.6016 77.7042 17.9837 70.9612 21.5638 65.2015C21.1934 62.4534 21.6242 59.4736 22.0304 56.6636C22.4024 54.0908 22.7538 51.6603 22.4508 49.6805C22.1841 47.9372 21.727 46.0163 21.2578 44.0445C19.0964 34.9604 16.6779 24.7958 31.4247 25.943C31.7854 25.9711 32.1418 26.0009 32.4941 26.0323C32.6485 24.6338 33.2807 21.3319 34.7221 19.6948C34.8629 19.5349 35.0113 19.391 35.1678 19.2662C35.8095 18.7545 36.4021 18.4781 36.9122 18.3477C37.6957 18.1474 38.2847 18.2913 38.5585 18.4551C38.3608 21.53 38.5619 24.3358 39.0653 26.8867C47.3508 28.3483 52.8343 30.9694 57.0554 34.2707C58.0789 35.0712 59.0283 35.9118 59.9253 36.7855C60.1695 36.3674 60.5101 36.0131 60.9164 35.7539C61.3835 35.4558 61.9374 35.2833 62.5313 35.2833H79.75C80.3439 35.2833 80.8978 35.4558 81.3648 35.7539C81.7711 36.0131 82.1118 36.3674 82.3559 36.7855C83.253 35.9118 84.2023 35.0712 85.2259 34.2707C89.5856 30.8609 95.292 28.1769 104.041 26.7464C104.525 24.2331 104.715 21.4738 104.521 18.4551C104.795 18.2913 105.384 18.1474 106.167 18.3477C106.677 18.4781 107.27 18.7545 107.912 19.2662C108.068 19.391 108.217 19.5349 108.357 19.6948C109.776 21.3062 110.411 24.5308 110.578 25.9651L110.857 25.943C125.603 24.7958 123.185 34.9604 121.023 44.0445C120.554 46.0163 120.097 47.9372 119.83 49.6805C119.527 51.6604 119.879 54.0908 120.251 56.6638ZM123.986 56.1035C123.587 53.3465 123.365 51.5529 123.562 50.2594L120.195 49.737L123.562 50.2594C123.801 48.701 124.217 46.9413 124.696 44.9303L121.023 44.0445L124.696 44.9303L124.717 44.839C125.243 42.6301 125.836 40.1379 126.162 37.7372C126.488 35.3334 126.606 32.6459 125.921 30.1454C125.188 27.4746 123.552 25.0987 120.689 23.6247C118.713 22.6072 116.346 22.1202 113.628 22.0587C113.562 21.8252 113.49 21.5894 113.413 21.3534C112.944 19.921 112.042 17.7099 110.256 16.2856C107.691 14.2403 104.683 13.9361 102.593 15.1861C101.372 15.9162 100.661 17.2741 100.753 18.7007C100.862 20.4069 100.834 22.0046 100.693 23.4993C92.3461 25.2228 86.6267 28.1742 82.1153 31.9074C81.3791 31.6321 80.5823 31.4812 79.75 31.4812H62.5313C61.699 31.4812 60.9022 31.632 60.166 31.9074C55.8069 28.3003 50.3147 25.4187 42.403 23.6733C42.2475 22.1286 42.2127 20.4732 42.3267 18.7007C42.4184 17.2741 41.7076 15.9162 40.4869 15.1861C38.3968 13.9361 35.3884 14.2403 32.8235 16.2856C31.0151 17.7276 30.1101 19.9793 29.6436 21.4247C29.5758 21.6348 29.5122 21.8446 29.4527 22.0527C26.3978 22.0308 23.7596 22.5086 21.5918 23.6247C18.7289 25.0987 17.0929 27.4746 16.3607 30.1454C15.6753 32.6459 15.7933 35.3334 16.1195 37.7372C16.4453 40.1379 17.0384 42.6301 17.564 44.839L17.5857 44.9303C18.0642 46.9413 18.4803 48.701 18.7188 50.2594C18.917 51.5548 18.6934 53.3518 18.2938 56.1159C18.2833 56.1883 18.2727 56.2613 18.2621 56.3348C17.9313 58.6188 17.5186 61.4681 17.6871 64.3049C14.1763 70.306 11.859 77.1982 10.8783 84.8744C10.0958 90.9993 9.35786 97.8209 10.1751 104.186C11.008 110.673 13.4911 116.965 19.3243 121.694C25.2709 126.514 34.655 129.269 44.0304 130.878C53.5725 132.516 63.7889 133.073 71.9589 133.073C80.1281 133.073 90.5357 132.516 100.267 130.881C109.816 129.276 119.418 126.526 125.379 121.694C131.248 116.936 133.705 110.39 134.529 103.848C135.345 97.3776 134.609 90.5719 133.82 84.8378C132.624 76.1458 129.434 68.3057 124.601 61.6246C124.508 59.714 124.237 57.8418 124.004 56.2305L123.988 56.1161C123.987 56.1119 123.986 56.1077 123.986 56.1035Z" fill="#9E0C00"/>
    <path d="M25.4421 72.0216C31.4247 76.4898 52.8623 64.5745 62.8333 58.0584V39.9063C56.8507 32.9247 49.3725 27.3394 31.4247 25.9431C13.4769 24.5468 20.9551 39.9063 22.4508 49.6805C23.3967 55.8623 17.9638 66.4363 25.4421 72.0216Z" fill="#FF80AD"/>
    <path d="M52.0932 55.1156C45.967 58.9327 33.4293 65.3326 32.2883 60.3955C30.862 54.2241 61.2825 49.3899 52.0932 55.1156Z" fill="#FF9DC1"/>
    <path d="M52.2201 47.3689C45.0235 46.0229 31.3427 42.2621 34.192 37.987C37.7536 32.6432 63.015 49.3879 52.2201 47.3689Z" fill="#FF9DC1"/>
    <path d="M116.839 72.0216C110.857 76.4898 89.4189 64.5745 79.4479 58.0584V39.9063C85.4305 32.9247 92.9088 27.3394 110.857 25.9431C128.804 24.5468 121.326 39.9063 119.83 49.6805C118.885 55.8623 124.317 66.4363 116.839 72.0216Z" fill="#FF80AD"/>
    <path d="M90.188 55.1156C96.3142 58.9327 108.852 65.3326 109.993 60.3955C111.419 54.2241 80.9987 49.3899 90.188 55.1156Z" fill="#FF9DC1"/>
    <path d="M90.0611 47.3689C97.2577 46.0229 110.939 42.2621 108.089 37.987C104.528 32.6432 79.2662 49.3879 90.0611 47.3689Z" fill="#FF9DC1"/>
    <rect width="23.2604" height="25.1444" rx="2" transform="matrix(1 0 0 -1 59.5104 60.4278)" fill="#FF9DC1"/>
    <path d="M130.08 85.3596C131.651 96.7765 132.741 110.845 123.011 118.732C112.717 127.076 88.0143 129.271 71.9589 129.271C55.9035 129.271 31.9859 127.076 21.6922 118.732C11.9622 110.845 13.0526 97.6547 14.6235 85.3596C18.214 57.2564 40.7272 41.4484 71.9589 41.4484C103.191 41.4484 126.455 59.0128 130.08 85.3596Z" fill="#D4331A"/>
    <mask id="mask0_34_597" style="mask-type:alpha" maskUnits="userSpaceOnUse" x="13" y="41" width="119" height="89">
        <path d="M130.08 85.3596C131.651 96.7765 132.741 110.845 123.011 118.732C112.717 127.076 88.0143 129.271 71.9589 129.271C55.9035 129.271 31.9859 127.076 21.6922 118.732C11.9622 110.845 13.0526 97.6547 14.6235 85.3596C18.214 57.2564 40.7272 41.4484 71.9589 41.4484C103.191 41.4484 126.455 59.0128 130.08 85.3596Z" fill="#5B4028"/>
    </mask>
    <g mask="url(#mask0_34_597)">
        <path d="M127.167 90.629C128.657 102.046 129.692 116.114 120.458 124.002C110.689 132.345 87.244 134.54 72.0065 134.54C56.769 134.54 34.0698 132.345 24.3005 124.002C15.0661 116.114 16.101 102.924 17.5919 90.629C20.9995 62.5258 42.3658 46.7178 72.0065 46.7178C101.647 46.7178 123.726 64.2823 127.167 90.629Z" fill="#FFEBEC"/>
        <ellipse rx="9.90034" ry="10.7059" transform="matrix(0.927692 -0.373346 0.775465 0.631391 34.1011 99.958)" fill="#FFA193"/>
        <ellipse rx="9.90034" ry="10.7059" transform="matrix(-0.927692 -0.373346 -0.775465 0.631391 109.389 99.958)" fill="#FFA193"/>
    </g>
    <ellipse rx="6.34109" ry="8.53764" transform="matrix(0.965404 0.260758 -0.255339 0.966852 43.0413 81.3873)" fill="#3F260F"/>
    <ellipse rx="6.34109" ry="8.53764" transform="matrix(-0.965404 0.260758 0.255339 0.966852 101.716 81.3873)" fill="#3F260F"/>
    <path fill-rule="evenodd" clip-rule="evenodd" d="M71.5397 45.2227C62.0938 45.2224 50.7299 45.1874 46.6964 41.167C41.8933 36.3795 37.8804 28.9999 38.5586 18.4551C38.1065 18.1847 36.7954 17.9684 35.1678 19.2662C33.1334 20.8885 32.4552 25.7553 32.4552 26.5665C32.4552 26.8213 32.1204 26.916 31.6402 27.0519C30.5922 27.3484 28.8514 27.8408 28.3863 30.6222C27.8438 33.8667 28.1603 35.2186 28.3863 35.489C27.2561 34.9482 24.7243 34.5156 23.6393 37.1113C22.283 40.3558 26.3519 46.845 35.1678 58.2009C41.2711 58.2009 52.5284 69.6061 62.2938 84.5311H71.2915H71.7879H80.7856C90.551 69.6061 101.808 58.2009 107.912 58.2009C116.728 46.845 120.796 40.3558 119.44 37.1113C118.355 34.5156 115.823 34.9482 114.693 35.489C114.919 35.2186 115.236 33.8667 114.693 30.6222C114.228 27.8408 112.487 27.3484 111.439 27.0519C110.959 26.916 110.624 26.8213 110.624 26.5665C110.624 25.7553 109.946 20.8885 107.912 19.2662C106.284 17.9684 104.973 18.1847 104.521 18.4551C105.199 28.9999 101.186 36.3795 96.3831 41.167C92.3496 45.1874 80.9856 45.2224 71.5397 45.2227Z" fill="url(#paint0_linear_34_597)"/>
    <ellipse cx="65.2105" cy="70.9735" rx="2.68519" ry="3.01278" fill="#FFEBEC"/>
    <ellipse rx="3.47961" ry="3.40868" transform="matrix(-0.314049 0.949407 -0.923158 -0.384421 57.3668 63.5364)" fill="#FFEBEC"/>
    <ellipse rx="3.6706" ry="3.72546" transform="matrix(-0.40274 0.915314 -0.874767 -0.484544 48.2984 55.9037)" fill="#FFEBEC"/>
    <ellipse rx="4.38127" ry="4.60991" transform="matrix(-0.549645 0.835398 -0.770134 -0.637882 38.7402 47.117)" fill="#FFEBEC"/>
    <ellipse rx="2.68518" ry="3.01278" transform="matrix(-1 0 0 1 79.9791 71.3031)" fill="#FFEBEC"/>
    <ellipse rx="3.47962" ry="3.40867" transform="matrix(0.314049 0.949407 0.923158 -0.384422 87.8229 63.866)" fill="#FFEBEC"/>
    <ellipse rx="3.6706" ry="3.72546" transform="matrix(0.40274 0.915314 0.874767 -0.484544 96.8913 56.2333)" fill="#FFEBEC"/>
    <ellipse rx="4.38127" ry="4.60991" transform="matrix(0.549644 0.835399 0.770134 -0.637882 106.45 47.4465)" fill="#FFEBEC"/>
    <path d="M92.8849 101.101C92.8849 112.998 83.7557 120.986 72.4943 120.986C61.2328 120.986 52.1036 112.998 52.1036 101.101C52.1036 89.2044 61.2328 77.903 72.4943 77.903C83.7557 77.903 92.8849 89.2044 92.8849 101.101Z" fill="url(#paint1_linear_34_597)"/>
    <path d="M90.3445 99.2109C76.0933 105.182 62.3478 102.578 54.6721 99.4744C53.8308 99.1343 53.0666 100.356 53.6851 101.09C68.5477 118.729 83.623 109.633 91.2423 100.639C91.8423 99.9312 91.1551 98.8713 90.3445 99.2109Z" fill="#583A15"/>
    <mask id="mask1_34_597" style="mask-type:alpha" maskUnits="userSpaceOnUse" x="53" y="98" width="40" height="14">
        <path d="M92.264 98.3702C76.6297 105.748 61.279 102.427 53.757 99.0797C53.2679 98.8621 52.7763 99.4707 53.11 99.8891C69.2892 120.172 85.5904 108.774 92.8863 99.0888C93.1981 98.675 92.7325 98.1491 92.264 98.3702Z" fill="#583A15"/>
    </mask>
    <g mask="url(#mask1_34_597)">
        <ellipse rx="10.7804" ry="8.78177" transform="matrix(0.999907 -0.0136734 0.0113612 0.999936 72.4707 99.0094)" fill="#9A4F01"/>
    </g>
    <ellipse rx="1.17313" ry="3.06402" transform="matrix(0.630255 -0.776388 0.664749 0.747067 79.5358 84.4168)" fill="#DAAB07"/>
    <ellipse rx="1.17314" ry="3.06402" transform="matrix(-0.630256 -0.776388 -0.66475 0.747066 65.4527 84.4168)" fill="#DAAB07"/>
    <defs>
        <linearGradient id="paint0_linear_34_597" x1="71.5397" y1="18.25" x2="71.5397" y2="84.5311" gradientUnits="userSpaceOnUse">
            <stop offset="0.129713" stop-color="#D4331A"/>
            <stop offset="1" stop-color="#AD0000"/>
        </linearGradient>
        <linearGradient id="paint1_linear_34_597" x1="72.4943" y1="77.903" x2="72.4943" y2="120.986" gradientUnits="userSpaceOnUse">
            <stop stop-color="#F9E045"/>
            <stop offset="1" stop-color="#DCBD00"/>
        </linearGradient>
    </defs>
</svg>
